<?xml version="1.0" encoding="UTF-8" standalone="no"?>
<!-- Created with Inkscape (http://www.inkscape.org/) -->
<svg width="256" height="144" viewBox="-57.94 -12.22 260.17 146.67" version="1.1" id="svg1" xml:space="preserve" xmlns:xlink="http://www.w3.org/1999/xlink" xmlns="http://www.w3.org/2000/svg" xmlns:svg="http://www.w3.org/2000/svg">
  <defs id="defs1" />
  <g id="layer1" transform="translate(-29.791959,-90.926447)">
    <g id="g10">
      <path style="fill:#efe3bf" d="m 67.903717,213.9627 c -0.432827,-0.12531 -1.955593,-0.29229 -3.383924,-0.37108 -1.428331,-0.0788 -2.703205,-0.18205 -2.833053,-0.22947 -0.900173,-0.32874 -6.910021,-0.88503 -10.236049,-0.94748 -6.169691,-0.11584 -8.827392,-0.32167 -10.460978,-0.81018 -0.77909,-0.23297 -1.735245,-0.50049 -2.12479,-0.59447 -6.316467,-1.52394 -9.63552,-10.75925 -8.994661,-25.02776 0.209572,-4.66604 0.808155,-7.05059 3.798137,-15.13052 1.733374,-4.68415 5.60598,-11.72569 6.448729,-11.72569 0.06112,0 0.207218,-0.17954 0.324659,-0.39898 0.123744,-0.23122 0.304256,-0.36417 0.429299,-0.31619 0.118673,0.0455 0.541274,0.01 0.939113,-0.0793 0.962039,-0.2156 2.192094,0.0441 3.007952,0.63513 0.360472,0.26113 1.347753,0.66708 2.333038,0.95932 2.220165,0.65849 2.995871,0.99778 3.111082,1.36078 0.05159,0.16254 0.422425,0.45519 0.824079,0.65033 0.868048,0.42173 3.5086,2.17227 5.485155,3.63636 3.206203,2.37491 15.812568,15.35286 15.076925,15.52132 -2.231178,0.51094 -4.839107,1.218 -8.151684,2.21008 -5.129812,1.53632 -8.61141,2.42069 -12.20141,3.09934 -4.827735,0.91263 -5.414154,1.61975 -1.49168,1.7987 3.053772,0.13932 6.919152,-0.62586 14.500516,-2.87047 7.806405,-2.31123 9.288655,-2.60119 9.921316,-1.94084 0.237097,0.24748 0.717764,0.51982 1.068149,0.6052 1.538212,0.37485 2.409036,0.68063 2.967144,1.04188 0.329324,0.21316 0.931347,0.5665 1.337831,0.7852 0.802565,0.4318 1.807233,1.43232 1.666657,1.65978 -0.200143,0.32384 -0.180985,5.43963 0.0249,6.65051 0.116673,0.68618 0.184323,1.2926 0.150332,1.3476 -0.07733,0.12512 0.926017,5.13471 1.189674,5.93987 0.272705,0.8328 2.766439,5.72849 3.090054,6.06639 0.252659,0.26381 0.219743,0.3273 -0.611927,1.18044 -0.483422,0.4959 -1.480094,1.71614 -2.214826,2.71164 -2.245533,3.04252 -1.375346,2.7498 -8.271434,2.78237 -4.773319,0.0225 -6.085018,-0.0165 -6.71833,-0.19981 z m 17.896018,-8.50358 c -1.371328,-2.56234 -2.688669,-8.7715 -2.800973,-13.20209 -0.0395,-1.55818 -0.149165,-3.17445 -0.243708,-3.59171 -0.577579,-2.54911 0.627791,-3.76055 3.836851,-3.85617 2.377378,-0.0708 2.218476,-0.22471 2.388644,2.31302 0.06023,0.89815 0.206959,1.92513 0.326076,2.28219 0.119117,0.35705 0.473845,1.81782 0.788283,3.24615 0.8279,3.76072 1.109811,4.62764 2.04728,6.29567 2.374145,4.22432 1.978884,4.87087 -3.314643,5.422 -2.043223,0.21273 -2.471943,0.38545 -2.740172,1.10393 -0.113524,0.30409 -0.118053,0.30389 -0.287638,-0.013 z m 10.749297,-4.30816 c -0.346262,-0.36027 -0.954453,-0.89505 -1.351535,-1.1884 -0.608848,-0.44979 -1.520703,-1.73921 -2.2936,-3.2433 -0.324981,-0.63242 -1.718563,-7.01036 -1.956903,-8.95607 -0.426674,-3.48318 0.449081,-7.24509 2.277916,-9.78508 0.656836,-0.91225 0.909709,-1.06447 2.256511,-1.35834 0.6637,-0.14481 0.6637,-0.14481 0.432828,0.30164 -0.363051,0.70207 -0.277682,1.15868 0.359347,1.92206 2.192844,2.62776 4.238614,2.86122 5.700384,0.65053 1.21823,-1.84238 4.50279,-3.0153 6.51953,-2.32813 3.29007,1.12104 6.85432,11.18556 5.24785,14.81856 -1.52904,3.4579 -3.42814,5.57399 -7.27664,8.10806 -1.3426,0.88405 -2.83502,1.26689 -5.43002,1.39293 -1.255201,0.061 -2.636314,0.15804 -3.069142,0.21572 -0.770013,0.10261 -0.800516,0.0908 -1.416526,-0.55018 z m -8.853291,-18.45084 c -0.194773,-0.0939 -0.354132,-0.22045 -0.354132,-0.28115 0,-0.0607 -0.159359,-0.28607 -0.354132,-0.50082 -0.194772,-0.21476 -0.885329,-1.04959 -1.53457,-1.85517 -0.649241,-0.80558 -2.161975,-2.42858 -3.361631,-3.60666 -1.199655,-1.17808 -3.002992,-3.09811 -4.007415,-4.26675 -3.001666,-3.4924 -5.268963,-5.67967 -10.09381,-9.73751 -0.449583,-0.37811 -1.632677,-1.2703 -2.629097,-1.98265 -1.526106,-1.09102 -1.936117,-1.47818 -2.601167,-2.45619 -1.210206,-1.77972 -1.452107,-2.0126 -2.764638,-2.66157 -0.671087,-0.33182 -1.786769,-0.93076 -2.479293,-1.33098 -0.692524,-0.40023 -1.861159,-0.90584 -2.596965,-1.12358 -6.551593,-1.93872 -6.876616,-2.08675 -7.660754,-3.48892 -1.846657,-3.30213 -1.889577,-5.29104 -0.125432,-5.81254 1.007485,-0.29783 5.772552,-1.29307 6.729467,-1.40554 0.941806,-0.11069 0.924909,-0.61147 -0.0754,-2.23478 -0.387382,-0.62864 -0.528178,-0.51194 1.368208,-1.13403 0.865655,-0.28396 2.449643,-0.8647 3.519972,-1.29052 2.133934,-0.84896 2.380419,-0.8583 2.385927,-0.0904 0.002,0.28406 0.143482,1.04208 0.314322,1.6845 0.177732,0.66834 0.351437,1.98136 0.406032,3.06915 0.05248,1.0456 0.156618,1.9764 0.231424,2.06844 0.0748,0.092 0.103556,0.41076 0.06389,0.70827 -0.665083,4.98827 -0.730858,5.87725 -0.450046,6.08259 0.865644,0.63297 3.25197,1.2111 5.74789,1.39253 1.857174,0.13499 1.794379,0.40401 1.563487,-6.69812 -0.158762,-4.88343 -0.249607,-5.76382 -0.97026,-9.40293 -0.335637,-1.69488 -0.184096,-2.55885 0.448825,-2.55885 0.220353,0 3.898626,-1.25329 9.402962,-3.20386 1.817876,-0.6442 4.43845,-1.57135 5.823498,-2.06033 1.385048,-0.48897 3.374641,-1.23686 4.421317,-1.66197 1.781592,-0.7236 4.40951,-1.573 4.866609,-1.573 0.193686,0 0.363455,0.64133 0.874946,3.30523 0.108038,0.56268 0.360053,1.5772 0.560032,2.2545 0.199979,0.6773 0.439908,1.66887 0.533174,2.20349 0.09327,0.53462 0.355127,1.53864 0.581912,2.23117 0.897804,2.74158 0.796396,2.95497 -2.158392,4.54177 -3.586085,1.92582 -9.917209,4.78048 -11.804388,5.32251 -2.106173,0.60492 -3.934796,1.69553 -3.934796,2.34673 0,1.1382 0.651859,1.16723 3.590316,0.15985 2.09036,-0.71664 2.262281,-0.7517 2.423095,-0.49419 0.207361,0.33203 0.694068,0.24702 2.019819,-0.35281 2.18389,-0.9881 6.111415,-1.61634 6.767888,-1.08258 0.355578,0.2891 0.409914,0.29436 0.665425,0.0644 0.340518,-0.30644 3.459439,0.0648 4.874067,0.58022 1.791394,0.65263 3.379703,1.0019 4.763383,1.04745 1.7085,0.0562 3.12887,0.18539 4.43784,0.40352 0.75512,0.12583 1.34122,0.10709 2.59697,-0.0831 0.89196,-0.13506 3.28616,-0.46408 5.32045,-0.73114 2.03429,-0.26706 5.11524,-0.69295 6.84655,-0.94641 1.73131,-0.25347 4.45812,-0.60805 6.05958,-0.78797 1.60147,-0.17992 3.54919,-0.42992 4.32828,-0.55557 9.94579,-1.60395 13.86895,-0.58508 13.19818,3.42767 -0.58714,3.51249 -0.74316,6.23131 -0.62703,10.92721 0.10561,4.27102 0.10561,4.27102 -0.28242,4.36841 -0.26654,0.0669 -0.53907,0.38048 -0.87046,1.0016 -1.85615,3.47897 -6.09052,5.56949 -10.75978,5.31212 -0.96813,-0.0534 -4.52246,-0.11419 -7.89852,-0.13516 -5.21556,-0.0324 -6.28365,-0.0784 -7.10535,-0.30608 -1.2322,-0.34142 -2.27801,-0.33283 -3.3203,0.0273 -0.82444,0.28483 -0.82496,0.2848 -1.41652,-0.0819 -0.32548,-0.20176 -1.0182,-0.50203 -1.53939,-0.66728 -0.96821,-0.30699 -2.4902,-1.00031 -3.41497,-1.55564 -0.28411,-0.17061 -0.8707,-0.43788 -1.30353,-0.59393 -0.43282,-0.15605 -0.86281,-0.3405 -0.95552,-0.4099 -0.0927,-0.0694 -1.73504,-0.65375 -3.64961,-1.29856 -2.781471,-0.93677 -3.654666,-1.30065 -4.345001,-1.81063 -1.129334,-0.83428 -1.082465,-0.69028 -0.873677,-2.68432 0.250043,-2.38805 -0.05289,-2.75673 -2.805855,-3.41484 -0.806943,-0.1929 -1.166458,-0.35569 -1.230393,-0.55714 -0.113413,-0.35733 -0.805956,-0.37874 -1.184009,-0.0366 -0.150714,0.13639 -0.380896,0.26367 -0.511517,0.28285 -0.253552,0.0372 -1.655715,1.76002 -2.386127,2.93178 -0.242821,0.38955 -0.485321,0.74368 -0.53889,0.78696 -0.117189,0.0947 -1.840845,3.57953 -2.519354,5.09356 -0.716984,1.59989 -0.651083,3.08145 0.13767,3.09501 0.134176,0.002 0.648408,0.3097 1.142737,0.68309 2.398144,1.81145 2.8607,1.76833 4.641623,-0.4327 0.484733,-0.59907 3.328357,-0.29922 4.296587,0.45307 0.529676,0.41155 1.737691,1.00961 3.182051,1.57538 1.529435,0.59909 1.529435,0.59909 0.524214,1.18651 -1.293438,0.75584 -2.292709,1.55925 -2.449779,1.96962 -0.101088,0.26411 -0.439299,0.38981 -1.831327,0.68068 -3.46333,0.72365 -5.044416,2.46847 -5.792937,6.39281 -0.330811,1.73437 -0.99979,2.30207 -2.092033,1.7753 z m 12.237215,-3.664 c 0,-0.0433 0.03541,-0.0787 0.07869,-0.0787 0.0433,0 0.0787,0.0354 0.0787,0.0787 0,0.0433 -0.0354,0.0787 -0.0787,0.0787 -0.04328,0 -0.07869,-0.0354 -0.07869,-0.0787 z m 27.753424,-0.81319 c 0.0577,-0.0577 0.15215,-0.0577 0.20986,0 0.0577,0.0577 0.0105,0.10492 -0.10493,0.10492 -0.11542,0 -0.16264,-0.0472 -0.10493,-0.10492 z m 40.78285,-9.9564 c -0.0822,-0.0801 -0.68072,-0.35712 -1.32996,-0.6156 -2.89759,-1.15361 -9.35418,-4.58381 -9.62667,-5.11437 -1.98786,-3.87053 -2.25641,-5.16417 -2.25641,-10.86924 0,-6.0113 -0.19452,-5.8358 5.6661,-5.11214 2.21322,0.27329 7.97164,0.22607 10.62395,-0.0871 1.2552,-0.14821 3.9466,-0.33127 5.98089,-0.4068 2.43305,-0.0903 4.345,-0.24825 5.58741,-0.46148 2.67192,-0.45857 2.51045,-0.49483 2.8973,0.65069 1.08325,3.20766 -0.95214,4.49582 -7.67557,4.85774 -1.58927,0.0856 -3.0058,0.21512 -3.14784,0.28793 -0.14205,0.0728 -0.84813,0.17953 -1.56908,0.23715 -2.59147,0.2071 -4.29059,0.64601 -5.80222,1.4988 -3.15681,1.78093 -3.4526,2.33706 -2.56015,4.81351 0.15598,0.43283 0.32881,1.07026 0.38408,1.41653 0.12347,0.77367 0.30024,1.01155 1.10473,1.48665 0.34626,0.20449 0.91287,0.63365 1.25914,0.95371 0.34626,0.32005 1.16076,0.99751 1.81,1.50546 1.43464,1.12244 2.71095,2.40151 2.59062,2.59622 -0.2016,0.32618 -3.44801,2.50799 -3.73176,2.50799 -0.0303,0 -0.12232,-0.0655 -0.20456,-0.14564 z m -21.42799,-6.71829 c -0.58909,-2.1215 0.11965,-14.85615 0.82682,-14.85615 0.12681,0 0.2268,-0.14848 0.2268,-0.3368 0,-0.31658 0.0543,-0.33085 0.905,-0.23769 0.49775,0.0545 1.76358,0.18066 2.81296,0.28034 1.90795,0.18123 1.90795,0.18123 2.00674,1.12643 0.21858,2.09119 0.1157,7.22994 -0.15063,7.52423 -0.58517,0.6466 -0.37119,2.56089 0.5727,5.12355 0.60096,1.63159 0.86824,1.45342 -2.3008,1.53376 -1.46604,0.0372 -3.13978,0.11922 -3.71942,0.18234 -1.05388,0.11478 -1.05388,0.11478 -1.18017,-0.34001 z m 22.41163,-1.60801 c -0.27697,-0.28801 -0.69837,-0.63971 -0.93642,-0.78155 -0.31737,-0.1891 -0.43432,-0.38529 -0.43843,-0.73548 -0.003,-0.26267 -0.10205,-0.88102 -0.21992,-1.37411 -0.31718,-1.32681 1.46572,-2.54569 4.28829,-2.9317 1.12175,-0.15341 0.99985,-0.34436 1.61947,2.53689 0.6134,2.85229 -2.47049,5.20183 -4.31299,3.28595 z" id="path12" />
      <path style="fill:#ec7224" d="m 137.14101,206.855 c -0.72924,-0.4985 -0.53329,-2.90688 0.31052,-3.81663 2.47467,-2.66801 5.55832,-8.21436 7.57432,-10.8739 0.84015,-1.10835 7.30462,-12.74463 7.73803,-14.94459 0.093,-0.47209 2.07713,-1.67783 2.6289,-1.59756 2.22356,0.73109 -5.45366,14.09775 -5.99613,14.98364 -3.07274,5.91498 -7.33003,10.93299 -11.703,15.93426 -0.21725,0.2473 -0.45405,0.38218 -0.55264,0.31478 z m -0.53576,-5.56256 c -0.56162,-8.27315 -6.66336,-13.65335 -12.67004,-18.32731 -0.60596,-0.47051 -1.56211,-1.21832 -2.12479,-1.6618 -0.56267,-0.44349 -1.87296,-1.23233 -2.91175,-1.75299 -1.03878,-0.52067 -2.38448,-1.26669 -2.99044,-1.65782 -1.99914,-1.29042 -4.33077,-2.11888 -7.24003,-2.57248 -3.08911,-0.48164 -4.22193,-0.2538 -5.8799,1.1826 -0.46386,0.40186 -0.97468,0.80093 -1.13516,0.88682 -0.16048,0.0859 -0.50415,0.46482 -0.76371,0.84208 -0.60611,0.88094 -0.933862,0.95873 -1.777414,0.42184 -1.151915,-0.73315 -1.171195,-0.79747 -0.603025,-2.01162 2.452079,-5.23998 12.310499,-6.40703 20.310989,-2.40443 0.64924,0.32481 2.27277,1.06334 3.60785,1.64117 10.10168,5.11335 16.54073,5.73198 27.78043,2.12455 1.17686,-0.45719 1.13591,-0.18808 -0.3155,2.07367 -1.19824,1.86723 -1.42954,2.56955 -3.792,6.35682 -1.99311,3.19517 -2.75184,4.45332 -4.50851,7.47612 -0.77975,1.34176 -2.03076,3.39572 -2.78001,4.56436 -0.74925,1.16863 -1.5227,2.39039 -1.71877,2.71501 -0.43259,0.7162 -0.48822,0.72798 -0.48822,0.10342 z m -21.1692,-3.75349 c -2.29889,-0.58909 -2.34988,-0.64549 -1.65641,-1.83219 0.91691,-1.56908 1.35607,-2.0067 1.90381,-1.89716 4.4191,0.88382 9.17326,-3.17709 8.38229,-7.15999 -0.10542,-0.53086 -0.14472,-0.47518 0.4329,-0.10916 0.75126,0.47605 2.06538,1.33579 2.58887,2.6947 0.41925,2.23483 -2.81726,6.47379 -4.30775,7.35016 -1.07473,0.63191 -3.93888,1.82614 -7.34374,0.95364 z m -13.07547,-27.86937 c -2.16831,-1.01314 -3.762855,-1.32448 -5.418069,-2.35997 -0.744469,-0.46573 -3.984778,-1.33169 -4.977815,-1.18403 -0.491872,0.0731 -0.878236,0.30354 -1.591693,0.94918 -0.942153,0.8526 -0.942153,0.8526 -1.894087,0.23404 -1.237861,-0.80434 -1.001456,-1.83878 1.120682,-4.90379 0.565431,-0.81665 1.290169,-2.00077 1.610529,-2.63136 0.707892,-1.39342 0.682395,-1.38258 2.2929,-0.97531 1.620544,0.4098 1.53323,0.27486 1.357631,2.09814 -0.205511,2.13386 1.266655,4.36785 2.878347,4.36785 0.26305,0 0.669528,0.0984 0.903285,0.21857 0.303556,0.15611 9.76658,3.57236 8.89728,3.82447 -2.81578,0.81664 -4.02536,0.90124 -5.17899,0.36221 z M 40.911017,140.88676 c 0,-0.0657 0.393327,-0.68096 0.87406,-1.36728 3.137183,-4.47879 3.72023,-7.19863 2.446375,-11.41201 -0.681644,-2.25459 -0.779964,-3.30332 -0.913695,-9.74591 -0.268256,-12.92347 -0.342346,-12.30592 1.793867,-14.95222 0.593977,-0.73581 1.405607,-1.7983 1.803622,-2.36109 3.413353,-4.826443 8.431652,-8.553478 12.296304,-9.132324 1.144941,-0.171489 2.612907,-0.413239 3.262149,-0.537223 2.281661,-0.435723 14.94614,-0.628997 16.355123,-0.249597 0.994226,0.267717 4.536405,4.31731 5.431677,6.209761 0.230422,0.487072 0.637068,1.255388 0.903657,1.70737 0.756593,1.282743 2.195607,4.635093 3.460581,8.061813 1.674642,4.53648 1.886617,4.91468 3.391995,6.05202 1.297686,0.98041 4.954753,2.86795 6.893177,3.55779 0.77909,0.27727 1.770661,0.64686 2.203481,0.82131 0.43283,0.17446 1.1962,0.44305 1.69638,0.59686 0.96829,0.29777 0.98011,0.37042 0.11363,0.69835 -0.30298,0.11467 -0.94042,0.44061 -1.41653,0.7243 -0.47611,0.2837 -2.246764,0.98738 -3.934791,1.56373 -1.688028,0.57635 -3.741991,1.31921 -4.564364,1.65082 -0.822372,0.3316 -2.522204,0.98893 -3.777404,1.46074 -5.318752,1.99922 -7.103266,2.67281 -8.813943,3.32692 -0.995503,0.38066 -2.907814,1.02384 -4.249579,1.4293 -1.341766,0.40545 -3.041598,0.97315 -3.777404,1.26155 -0.735807,0.2884 -3.00225,1.16242 -5.036539,1.94227 -3.914803,1.50074 -6.752286,2.62861 -10.23047,4.0665 -3.398008,1.40474 -6.89296,2.5098 -9.758294,3.08545 -0.216413,0.0435 -1.491287,0.39374 -2.833053,0.77837 -2.579508,0.73943 -3.620012,0.95858 -3.620012,0.76243 z" id="path11" />
    </g>
  </g>
</svg>
